<?xml version="1.0" encoding="UTF-8"?>
<svg id="Layer_2" data-name="Layer 2" xmlns="http://www.w3.org/2000/svg" viewBox="0 0 189.34 40">
  <defs>
    <style>
      .cls-1 {
        fill: #fff;
        font-family: Inter-Bold, Inter;
        font-size: 27.58px;
        font-variation-settings: 'wght' 700, 'slnt' 0;
        font-weight: 700;
      }

      .cls-2 {
        fill: #ac6aff;
      }
    </style>
  </defs>
  <g id="Layer_1-2" data-name="Layer 1">
    <g>
      <polygon class="cls-2" points="35.21 11.5 35.21 6.29 25.59 0 25.59 4.02 31.93 8.2 31.94 11.4 28.99 13.4 26.98 11.93 26.98 9.45 23.7 7.2 23.7 11.73 18.5 14.91 18.5 23.33 14.82 25.4 12.94 23.93 12.94 21.49 15.17 19.96 15.17 19.94 15.17 16.17 11.15 18.85 8.08 16.86 5.28 18.69 9.66 21.69 9.66 23.54 6.5 25.67 3.28 23.49 3.28 16.23 8.06 12.99 8.07 9.88 14.2 13.83 19.36 10.39 16.22 8.56 14.16 9.95 9.68 6.98 14.73 4.04 19.11 6.6 19.11 2.78 14.74 .21 4.79 6.01 4.79 11.22 0 14.47 0 25.26 4.79 28.5 4.79 33.71 14.41 40 14.41 35.98 8.07 31.8 8.06 28.6 11.01 26.6 13.02 28.07 13.02 30.56 16.3 32.8 16.3 28.27 21.57 25.09 21.63 16.67 25.18 14.6 27.06 16.08 27.06 18.51 24.83 20.04 24.83 20.06 24.83 23.84 28.85 21.15 31.92 23.15 34.72 21.31 30.34 18.31 30.34 16.47 33.5 14.33 36.72 16.51 36.72 23.77 31.94 27.01 31.93 30.13 25.8 26.17 20.64 29.58 23.78 31.42 25.84 30.06 30.32 33.02 25.27 35.97 20.89 33.4 20.89 37.22 25.26 39.79 35.21 33.99 35.21 28.78 40 25.54 40 14.74 35.21 11.5"/>
      <text class="cls-1" transform="translate(54.23 29.99)"><tspan x="0" y="0">SummifyX</tspan></text>
    </g>
  </g>
</svg>